<mxfile host="app.diagrams.net" agent="Mozilla/5.0 (Windows NT 10.0; Win64; x64) AppleWebKit/537.36 (KHTML, like Gecko) Chrome/137.0.0.0 Safari/537.36 OPR/121.0.0.0" version="28.2.5">
  <diagram name="Page-1" id="e1JPhaD_NbJU4bTSpyzm">
    <mxGraphModel dx="995" dy="483" grid="1" gridSize="10" guides="1" tooltips="1" connect="1" arrows="1" fold="1" page="1" pageScale="1" pageWidth="1169" pageHeight="827" math="0" shadow="0">
      <root>
        <mxCell id="0" />
        <mxCell id="1" parent="0" />
        <mxCell id="O2OLtIrEPHwmCok9pPwz-1" value="Task Operations" style="shape=folder;fontStyle=1;tabWidth=110;tabHeight=30;tabPosition=left;html=1;boundedLbl=1;labelInHeader=1;container=1;collapsible=0;whiteSpace=wrap;" parent="1" vertex="1">
          <mxGeometry x="110" y="120" width="230" height="170" as="geometry" />
        </mxCell>
        <mxCell id="O2OLtIrEPHwmCok9pPwz-2" value="" style="html=1;strokeColor=none;resizeWidth=1;resizeHeight=1;fillColor=none;part=1;connectable=0;allowArrows=0;deletable=0;whiteSpace=wrap;" parent="O2OLtIrEPHwmCok9pPwz-1" vertex="1">
          <mxGeometry width="230.00000000000006" height="113.82608695652173" relative="1" as="geometry">
            <mxPoint y="30" as="offset" />
          </mxGeometry>
        </mxCell>
        <mxCell id="O2OLtIrEPHwmCok9pPwz-22" value="Add Task" style="swimlane;fontStyle=1;align=center;verticalAlign=middle;childLayout=stackLayout;horizontal=1;startSize=29;horizontalStack=0;resizeParent=1;resizeParentMax=0;resizeLast=0;collapsible=0;marginBottom=0;html=1;whiteSpace=wrap;" parent="O2OLtIrEPHwmCok9pPwz-1" vertex="1">
          <mxGeometry x="13.030000000000001" y="40" width="96.12" height="54" as="geometry" />
        </mxCell>
        <mxCell id="O2OLtIrEPHwmCok9pPwz-25" value="Read Task" style="swimlane;fontStyle=1;align=center;verticalAlign=middle;childLayout=stackLayout;horizontal=1;startSize=29;horizontalStack=0;resizeParent=1;resizeParentMax=0;resizeLast=0;collapsible=0;marginBottom=0;html=1;whiteSpace=wrap;" parent="O2OLtIrEPHwmCok9pPwz-1" vertex="1">
          <mxGeometry x="119.09" y="40" width="97.88" height="54" as="geometry" />
        </mxCell>
        <mxCell id="O2OLtIrEPHwmCok9pPwz-26" value="Update Task" style="swimlane;fontStyle=1;align=center;verticalAlign=middle;childLayout=stackLayout;horizontal=1;startSize=29;horizontalStack=0;resizeParent=1;resizeParentMax=0;resizeLast=0;collapsible=0;marginBottom=0;html=1;whiteSpace=wrap;" parent="O2OLtIrEPHwmCok9pPwz-1" vertex="1">
          <mxGeometry x="13.030000000000001" y="104" width="96.12" height="54" as="geometry" />
        </mxCell>
        <mxCell id="O2OLtIrEPHwmCok9pPwz-27" value="Delete Task" style="swimlane;fontStyle=1;align=center;verticalAlign=middle;childLayout=stackLayout;horizontal=1;startSize=31;horizontalStack=0;resizeParent=1;resizeParentMax=0;resizeLast=0;collapsible=0;marginBottom=0;html=1;whiteSpace=wrap;" parent="O2OLtIrEPHwmCok9pPwz-1" vertex="1">
          <mxGeometry x="119.09" y="104" width="97.88" height="54" as="geometry" />
        </mxCell>
        <mxCell id="O2OLtIrEPHwmCok9pPwz-11" value="Read Task" style="shape=folder;fontStyle=1;tabWidth=110;tabHeight=30;tabPosition=left;html=1;boundedLbl=1;labelInHeader=1;container=1;collapsible=0;whiteSpace=wrap;" parent="1" vertex="1">
          <mxGeometry x="400" y="120" width="270" height="180" as="geometry" />
        </mxCell>
        <mxCell id="O2OLtIrEPHwmCok9pPwz-12" value="" style="html=1;strokeColor=none;resizeWidth=1;resizeHeight=1;fillColor=none;part=1;connectable=0;allowArrows=0;deletable=0;whiteSpace=wrap;" parent="O2OLtIrEPHwmCok9pPwz-11" vertex="1">
          <mxGeometry width="270.00000000000006" height="120.52173913043477" relative="1" as="geometry">
            <mxPoint y="30" as="offset" />
          </mxGeometry>
        </mxCell>
        <mxCell id="O2OLtIrEPHwmCok9pPwz-30" value="Read User Tasks" style="swimlane;fontStyle=1;align=center;verticalAlign=middle;childLayout=stackLayout;horizontal=1;startSize=29;horizontalStack=0;resizeParent=1;resizeParentMax=0;resizeLast=0;collapsible=0;marginBottom=0;html=1;whiteSpace=wrap;" parent="O2OLtIrEPHwmCok9pPwz-11" vertex="1">
          <mxGeometry x="10" y="40" width="118" height="54" as="geometry" />
        </mxCell>
        <mxCell id="O2OLtIrEPHwmCok9pPwz-32" value="Read GitHub Tasks" style="swimlane;fontStyle=1;align=center;verticalAlign=middle;childLayout=stackLayout;horizontal=1;startSize=29;horizontalStack=0;resizeParent=1;resizeParentMax=0;resizeLast=0;collapsible=0;marginBottom=0;html=1;whiteSpace=wrap;" parent="O2OLtIrEPHwmCok9pPwz-11" vertex="1">
          <mxGeometry x="138" y="40" width="118" height="54" as="geometry" />
        </mxCell>
        <mxCell id="O2OLtIrEPHwmCok9pPwz-31" value="Read AI Tasks" style="swimlane;fontStyle=1;align=center;verticalAlign=middle;childLayout=stackLayout;horizontal=1;startSize=29;horizontalStack=0;resizeParent=1;resizeParentMax=0;resizeLast=0;collapsible=0;marginBottom=0;html=1;whiteSpace=wrap;" parent="O2OLtIrEPHwmCok9pPwz-11" vertex="1">
          <mxGeometry x="10" y="107" width="118" height="54" as="geometry" />
        </mxCell>
        <mxCell id="O2OLtIrEPHwmCok9pPwz-33" value="ReadAITasks::AI Operations" style="shape=folder;fontStyle=1;tabWidth=230;tabHeight=30;tabPosition=left;html=1;boundedLbl=1;labelInHeader=1;container=1;collapsible=0;whiteSpace=wrap;" parent="1" vertex="1">
          <mxGeometry x="386" y="373" width="380" height="150" as="geometry" />
        </mxCell>
        <mxCell id="O2OLtIrEPHwmCok9pPwz-34" value="" style="html=1;strokeColor=none;resizeWidth=1;resizeHeight=1;fillColor=none;part=1;connectable=0;allowArrows=0;deletable=0;whiteSpace=wrap;" parent="O2OLtIrEPHwmCok9pPwz-33" vertex="1">
          <mxGeometry width="380.00000000000006" height="100.43478260869563" relative="1" as="geometry">
            <mxPoint y="30" as="offset" />
          </mxGeometry>
        </mxCell>
        <mxCell id="O2OLtIrEPHwmCok9pPwz-39" value="Python Document Extractor" style="shape=folder;fontStyle=1;tabWidth=160;tabHeight=35;tabPosition=left;html=1;boundedLbl=1;labelInHeader=1;container=1;collapsible=0;whiteSpace=wrap;" parent="O2OLtIrEPHwmCok9pPwz-33" vertex="1">
          <mxGeometry x="13.68" y="41" width="146.32" height="100" as="geometry" />
        </mxCell>
        <mxCell id="O2OLtIrEPHwmCok9pPwz-40" value="" style="html=1;strokeColor=none;resizeWidth=1;resizeHeight=1;fillColor=none;part=1;connectable=0;allowArrows=0;deletable=0;whiteSpace=wrap;" parent="O2OLtIrEPHwmCok9pPwz-39" vertex="1">
          <mxGeometry width="116.19529411764707" height="57.142857142857146" relative="1" as="geometry">
            <mxPoint y="30" as="offset" />
          </mxGeometry>
        </mxCell>
        <mxCell id="O2OLtIrEPHwmCok9pPwz-38" value="Generate Task List" style="swimlane;fontStyle=1;align=center;verticalAlign=middle;childLayout=stackLayout;horizontal=1;startSize=29;horizontalStack=0;resizeParent=1;resizeParentMax=0;resizeLast=0;collapsible=0;marginBottom=0;html=1;whiteSpace=wrap;" parent="O2OLtIrEPHwmCok9pPwz-33" vertex="1">
          <mxGeometry x="206.32" y="55.41" width="123.68" height="71.18" as="geometry" />
        </mxCell>
        <mxCell id="O2OLtIrEPHwmCok9pPwz-45" value="" style="endArrow=open;html=1;rounded=0;exitX=0.226;exitY=1.002;exitDx=0;exitDy=0;exitPerimeter=0;entryX=0.75;entryY=0;entryDx=0;entryDy=0;dashed=1;dashPattern=8 8;endFill=0;" parent="1" source="O2OLtIrEPHwmCok9pPwz-11" target="O2OLtIrEPHwmCok9pPwz-46" edge="1">
          <mxGeometry width="50" height="50" relative="1" as="geometry">
            <mxPoint x="589" y="450" as="sourcePoint" />
            <mxPoint x="639" y="400" as="targetPoint" />
            <Array as="points" />
          </mxGeometry>
        </mxCell>
        <mxCell id="O2OLtIrEPHwmCok9pPwz-46" value="&lt;b&gt;&lt;font style=&quot;font-size: 13px;&quot;&gt;PACKAGE C&lt;/font&gt;&lt;/b&gt;" style="text;html=1;align=center;verticalAlign=middle;whiteSpace=wrap;rounded=0;fillColor=#d5e8d4;strokeColor=#82b366;" parent="1" vertex="1">
          <mxGeometry x="386" y="343" width="100" height="30" as="geometry" />
        </mxCell>
        <mxCell id="O2OLtIrEPHwmCok9pPwz-47" value="&lt;b&gt;&lt;font style=&quot;font-size: 13px;&quot;&gt;PACKAGE A&lt;/font&gt;&lt;/b&gt;" style="text;html=1;align=center;verticalAlign=middle;whiteSpace=wrap;rounded=0;fillColor=#d5e8d4;strokeColor=#82b366;" parent="1" vertex="1">
          <mxGeometry x="110" y="90" width="100" height="30" as="geometry" />
        </mxCell>
        <mxCell id="O2OLtIrEPHwmCok9pPwz-48" value="Persistant Storage" style="shape=folder;fontStyle=1;tabWidth=130;tabHeight=30;tabPosition=left;html=1;boundedLbl=1;labelInHeader=1;container=1;collapsible=0;whiteSpace=wrap;" parent="1" vertex="1">
          <mxGeometry x="110" y="390" width="210" height="180" as="geometry" />
        </mxCell>
        <mxCell id="O2OLtIrEPHwmCok9pPwz-49" value="" style="html=1;strokeColor=none;resizeWidth=1;resizeHeight=1;fillColor=none;part=1;connectable=0;allowArrows=0;deletable=0;whiteSpace=wrap;" parent="O2OLtIrEPHwmCok9pPwz-48" vertex="1">
          <mxGeometry width="210.00000000000003" height="120.52173913043478" relative="1" as="geometry">
            <mxPoint y="30" as="offset" />
          </mxGeometry>
        </mxCell>
        <mxCell id="O2OLtIrEPHwmCok9pPwz-52" value="User" style="swimlane;fontStyle=1;align=center;verticalAlign=middle;childLayout=stackLayout;horizontal=1;startSize=29;horizontalStack=0;resizeParent=1;resizeParentMax=0;resizeLast=0;collapsible=0;marginBottom=0;html=1;whiteSpace=wrap;" parent="O2OLtIrEPHwmCok9pPwz-48" vertex="1">
          <mxGeometry x="10" y="40" width="89.12" height="54" as="geometry" />
        </mxCell>
        <mxCell id="O2OLtIrEPHwmCok9pPwz-53" value="AI Tasks" style="swimlane;fontStyle=1;align=center;verticalAlign=middle;childLayout=stackLayout;horizontal=1;startSize=29;horizontalStack=0;resizeParent=1;resizeParentMax=0;resizeLast=0;collapsible=0;marginBottom=0;html=1;whiteSpace=wrap;" parent="O2OLtIrEPHwmCok9pPwz-48" vertex="1">
          <mxGeometry x="109.12" y="40" width="90" height="54" as="geometry" />
        </mxCell>
        <mxCell id="O2OLtIrEPHwmCok9pPwz-51" value="Task List" style="swimlane;fontStyle=1;align=center;verticalAlign=middle;childLayout=stackLayout;horizontal=1;startSize=29;horizontalStack=0;resizeParent=1;resizeParentMax=0;resizeLast=0;collapsible=0;marginBottom=0;html=1;whiteSpace=wrap;" parent="O2OLtIrEPHwmCok9pPwz-48" vertex="1">
          <mxGeometry x="10" y="108" width="89.12" height="54" as="geometry" />
        </mxCell>
        <mxCell id="O2OLtIrEPHwmCok9pPwz-50" value="Doc File Path" style="swimlane;fontStyle=1;align=center;verticalAlign=middle;childLayout=stackLayout;horizontal=1;startSize=29;horizontalStack=0;resizeParent=1;resizeParentMax=0;resizeLast=0;collapsible=0;marginBottom=0;html=1;whiteSpace=wrap;" parent="O2OLtIrEPHwmCok9pPwz-48" vertex="1">
          <mxGeometry x="109.12" y="108" width="90.88" height="54" as="geometry" />
        </mxCell>
        <mxCell id="O2OLtIrEPHwmCok9pPwz-54" value="&lt;b&gt;&lt;font style=&quot;font-size: 13px;&quot;&gt;PACKAGE B&lt;/font&gt;&lt;/b&gt;" style="text;html=1;align=center;verticalAlign=middle;whiteSpace=wrap;rounded=0;fillColor=#d5e8d4;strokeColor=#82b366;" parent="1" vertex="1">
          <mxGeometry x="110" y="360" width="100" height="30" as="geometry" />
        </mxCell>
        <mxCell id="O2OLtIrEPHwmCok9pPwz-55" value="" style="endArrow=classic;html=1;rounded=0;exitX=0.25;exitY=1;exitDx=0;exitDy=0;exitPerimeter=0;entryX=0.854;entryY=0.036;entryDx=0;entryDy=0;entryPerimeter=0;" parent="1" source="O2OLtIrEPHwmCok9pPwz-1" target="O2OLtIrEPHwmCok9pPwz-54" edge="1">
          <mxGeometry width="50" height="50" relative="1" as="geometry">
            <mxPoint x="620" y="450" as="sourcePoint" />
            <mxPoint x="670" y="400" as="targetPoint" />
            <Array as="points">
              <mxPoint x="195" y="360" />
            </Array>
          </mxGeometry>
        </mxCell>
        <mxCell id="O2OLtIrEPHwmCok9pPwz-56" value="" style="endArrow=classic;html=1;rounded=0;exitX=1;exitY=0.25;exitDx=0;exitDy=0;entryX=0.001;entryY=0.075;entryDx=0;entryDy=0;entryPerimeter=0;" parent="1" source="O2OLtIrEPHwmCok9pPwz-25" target="O2OLtIrEPHwmCok9pPwz-11" edge="1">
          <mxGeometry width="50" height="50" relative="1" as="geometry">
            <mxPoint x="630" y="360" as="sourcePoint" />
            <mxPoint x="680" y="310" as="targetPoint" />
          </mxGeometry>
        </mxCell>
      </root>
    </mxGraphModel>
  </diagram>
</mxfile>
